<?xml version="1.0" encoding="UTF-8"?> <svg xmlns="http://www.w3.org/2000/svg" id="Livello_1" data-name="Livello 1" version="1.1" viewBox="0 0 300 44.9"><defs><style> .cls-1 { fill: #fff; } .cls-1, .cls-2 { stroke-width: 0px; } .cls-2 { fill: #da1944; } </style></defs><g><path class="cls-1" d="M109.3,13.5v1.7h-5.3v3.7h4.1v1.7h-4.1v5.5h-2v-12.5h7.3Z"></path><path class="cls-1" d="M120.3,21.8h-7.6c0,.8.4,1.4.9,1.9.5.5,1.2.7,1.9.7,1.1,0,1.9-.5,2.3-1.4h2.2c-.3.9-.8,1.7-1.6,2.2-.8.6-1.8.9-2.9.9s-1.8-.2-2.5-.6c-.7-.4-1.3-1-1.8-1.8-.4-.8-.6-1.7-.6-2.7s.2-1.9.6-2.7c.4-.8,1-1.4,1.7-1.8.7-.4,1.6-.6,2.6-.6s1.8.2,2.5.6c.7.4,1.3,1,1.7,1.7.4.7.6,1.6.6,2.5s0,.7,0,1ZM118.2,20.1c0-.8-.3-1.4-.8-1.8-.5-.5-1.2-.7-2-.7s-1.3.2-1.8.7c-.5.4-.8,1.1-.9,1.8h5.5Z"></path><path class="cls-1" d="M125.7,16.3c.5-.3,1.1-.4,1.8-.4v2.1h-.5c-.8,0-1.4.2-1.8.6-.4.4-.6,1.1-.6,2.1v5.2h-2v-9.9h2v1.4c.3-.5.7-.9,1.2-1.2Z"></path><path class="cls-1" d="M132.7,16.3c.5-.3,1.1-.4,1.8-.4v2.1h-.5c-.8,0-1.4.2-1.8.6-.4.4-.6,1.1-.6,2.1v5.2h-2v-9.9h2v1.4c.3-.5.7-.9,1.2-1.2Z"></path><path class="cls-1" d="M136.4,18.3c.4-.8,1-1.4,1.7-1.8.7-.4,1.5-.6,2.4-.6s1.5.2,2,.5c.6.3,1,.7,1.4,1.1v-1.4h2.1v9.9h-2.1v-1.5c-.3.5-.8.9-1.4,1.2-.6.3-1.3.5-2,.5s-1.6-.2-2.3-.7c-.7-.4-1.3-1-1.7-1.8s-.6-1.7-.6-2.7.2-1.9.6-2.6ZM143.4,19.2c-.3-.5-.6-.9-1.1-1.2-.5-.3-.9-.4-1.5-.4s-1,.1-1.5.4c-.5.3-.8.6-1.1,1.1-.3.5-.4,1.1-.4,1.8s.1,1.3.4,1.8c.3.5.7.9,1.1,1.2.5.3.9.4,1.5.4s1-.1,1.5-.4c.5-.3.8-.6,1.1-1.2s.4-1.1.4-1.8-.1-1.3-.4-1.8Z"></path><path class="cls-1" d="M152,16.3c.5-.3,1.1-.4,1.8-.4v2.1h-.5c-.8,0-1.4.2-1.8.6-.4.4-.6,1.1-.6,2.1v5.2h-2v-9.9h2v1.4c.3-.5.7-.9,1.2-1.2Z"></path><path class="cls-1" d="M155.8,14.4c-.3-.3-.4-.6-.4-.9s.1-.7.4-.9c.3-.3.6-.4.9-.4s.7.1.9.4c.3.3.4.6.4.9s-.1.7-.4.9c-.3.3-.6.4-.9.4s-.7-.1-.9-.4ZM157.8,16.1v9.9h-2v-9.9h2Z"></path><path class="cls-1" d="M172.7,13.5v1.7h-5.3v3.7h4.1v1.7h-4.1v5.5h-2v-12.5h7.3Z"></path><path class="cls-1" d="M174.6,18.3c.4-.8,1-1.4,1.7-1.8.7-.4,1.5-.6,2.4-.6s1.5.2,2,.5c.6.3,1,.7,1.4,1.1v-1.4h2.1v9.9h-2.1v-1.5c-.3.5-.8.9-1.4,1.2-.6.3-1.3.5-2,.5s-1.6-.2-2.3-.7c-.7-.4-1.3-1-1.7-1.8s-.6-1.7-.6-2.7.2-1.9.6-2.6ZM181.6,19.2c-.3-.5-.6-.9-1.1-1.2-.5-.3-.9-.4-1.5-.4s-1,.1-1.5.4c-.5.3-.8.6-1.1,1.1-.3.5-.4,1.1-.4,1.8s.1,1.3.4,1.8c.3.5.7.9,1.1,1.2.5.3.9.4,1.5.4s1-.1,1.5-.4c.5-.3.8-.6,1.1-1.2.3-.5.4-1.1.4-1.8s-.1-1.3-.4-1.8Z"></path><path class="cls-1" d="M188.4,25.7c-.6-.3-1.1-.7-1.5-1.2s-.6-1-.6-1.6h2.1c0,.4.2.8.6,1.1.4.3.8.4,1.4.4s1-.1,1.3-.3c.3-.2.5-.5.5-.9s-.2-.6-.5-.8-.9-.4-1.7-.6c-.7-.2-1.3-.4-1.8-.6-.5-.2-.9-.5-1.2-.9-.3-.4-.5-.9-.5-1.6s.2-1,.5-1.4c.3-.4.8-.8,1.3-1,.6-.3,1.2-.4,2-.4,1.1,0,2,.3,2.7.9.7.6,1.1,1.3,1.1,2.3h-2c0-.4-.2-.8-.5-1.1s-.8-.4-1.3-.4-1,.1-1.2.3c-.3.2-.4.5-.4.8s0,.5.3.7c.2.2.4.3.7.4.3.1.7.2,1.2.4.7.2,1.3.4,1.8.6.5.2.9.5,1.2.9.3.4.5.9.5,1.5,0,.6-.2,1.1-.5,1.5-.3.4-.8.8-1.3,1-.6.3-1.2.4-2,.4s-1.5-.1-2.1-.4Z"></path><path class="cls-1" d="M203.7,16.4c.6.3,1.1.8,1.4,1.4s.5,1.4.5,2.3v5.8h-2v-5.5c0-.9-.2-1.6-.7-2-.4-.5-1-.7-1.8-.7s-1.4.2-1.8.7c-.4.5-.7,1.2-.7,2v5.5h-2v-13.3h2v4.5c.3-.4.8-.7,1.3-1,.5-.2,1.1-.3,1.8-.3s1.4.2,2,.5Z"></path><path class="cls-1" d="M208.5,14.4c-.3-.3-.4-.6-.4-.9s.1-.7.4-.9c.3-.3.6-.4.9-.4s.7.1.9.4c.3.3.4.6.4.9s-.1.7-.4.9c-.3.3-.6.4-.9.4s-.7-.1-.9-.4ZM210.4,16.1v9.9h-2v-9.9h2Z"></path><path class="cls-1" d="M214.9,25.5c-.8-.4-1.3-1-1.8-1.8-.4-.8-.6-1.7-.6-2.7s.2-1.9.7-2.7c.4-.8,1-1.4,1.8-1.8.8-.4,1.6-.6,2.6-.6s1.8.2,2.6.6c.8.4,1.4,1,1.8,1.8.4.8.7,1.7.7,2.7s-.2,1.9-.7,2.7c-.5.8-1.1,1.4-1.9,1.8s-1.7.6-2.6.6-1.8-.2-2.5-.6ZM219,24c.5-.3.8-.6,1.1-1.1s.4-1.1.4-1.8-.1-1.3-.4-1.8c-.3-.5-.6-.9-1.1-1.1-.5-.3-.9-.4-1.5-.4s-1,.1-1.5.4c-.4.3-.8.6-1.1,1.1-.3.5-.4,1.1-.4,1.8,0,1.1.3,1.9.8,2.5.5.6,1.2.9,2.1.9s1-.1,1.5-.4Z"></path><path class="cls-1" d="M231.8,16.4c.6.3,1.1.8,1.4,1.4s.5,1.4.5,2.3v5.8h-2v-5.5c0-.9-.2-1.6-.7-2s-1-.7-1.8-.7-1.4.2-1.8.7c-.4.5-.7,1.2-.7,2v5.5h-2v-9.9h2v1.1c.3-.4.8-.7,1.3-1,.5-.2,1.1-.3,1.7-.3s1.5.2,2.1.5Z"></path><path class="cls-1" d="M243.1,25.6c-.7-.3-1.2-.7-1.6-1.2-.4-.5-.6-1.2-.6-1.9h2.2c0,.5.3,1,.6,1.3.4.3.9.5,1.6.5s1.3-.2,1.7-.5.6-.8.6-1.3-.1-.8-.4-1c-.2-.3-.6-.5-.9-.6-.4-.1-.9-.3-1.5-.5-.8-.2-1.5-.4-2-.7-.5-.2-.9-.6-1.3-1-.4-.5-.5-1.1-.5-1.9s.2-1.3.5-1.9.9-1,1.5-1.2c.6-.3,1.4-.4,2.2-.4,1.2,0,2.2.3,3,.9.8.6,1.2,1.4,1.3,2.5h-2.3c0-.5-.3-.8-.6-1.2-.4-.3-.9-.5-1.6-.5s-1.1.1-1.4.4c-.4.3-.6.7-.6,1.3s.1.7.4.9c.2.2.5.4.9.6s.9.3,1.5.5c.8.2,1.5.5,2,.7.5.2,1,.6,1.3,1.1.4.5.5,1.1.5,1.9s-.2,1.2-.5,1.8c-.3.6-.8,1-1.5,1.4-.7.3-1.4.5-2.3.5s-1.6-.1-2.3-.4Z"></path><path class="cls-1" d="M252.1,18.3c.4-.8,1-1.4,1.7-1.8.7-.4,1.6-.6,2.5-.6s2.2.3,3,.9c.8.6,1.3,1.4,1.6,2.4h-2.2c-.2-.5-.5-.9-.9-1.2-.4-.3-.9-.4-1.5-.4s-1.5.3-2,.9c-.5.6-.7,1.4-.7,2.5s.2,1.9.7,2.5c.5.6,1.2.9,2,.9s2-.5,2.4-1.6h2.2c-.3,1-.8,1.8-1.6,2.4-.8.6-1.8.9-2.9.9s-1.8-.2-2.5-.6c-.7-.4-1.3-1-1.7-1.8-.4-.8-.6-1.7-.6-2.7s.2-1.9.6-2.7Z"></path><path class="cls-1" d="M270.2,16.4c.6.3,1.1.8,1.4,1.4s.5,1.4.5,2.3v5.8h-2v-5.5c0-.9-.2-1.6-.7-2-.4-.5-1-.7-1.8-.7s-1.4.2-1.8.7c-.4.5-.7,1.2-.7,2v5.5h-2v-13.3h2v4.5c.3-.4.8-.7,1.3-1,.5-.2,1.1-.3,1.8-.3s1.4.2,2,.5Z"></path><path class="cls-1" d="M276.6,25.5c-.8-.4-1.3-1-1.8-1.8-.4-.8-.6-1.7-.6-2.7s.2-1.9.7-2.7c.4-.8,1-1.4,1.8-1.8.8-.4,1.6-.6,2.6-.6s1.8.2,2.6.6c.8.4,1.4,1,1.8,1.8.4.8.7,1.7.7,2.7s-.2,1.9-.7,2.7c-.5.8-1.1,1.4-1.9,1.8-.8.4-1.7.6-2.6.6s-1.8-.2-2.5-.6ZM280.6,24c.5-.3.8-.6,1.1-1.1s.4-1.1.4-1.8-.1-1.3-.4-1.8c-.3-.5-.6-.9-1.1-1.1-.5-.3-.9-.4-1.5-.4s-1,.1-1.5.4c-.4.3-.8.6-1.1,1.1-.3.5-.4,1.1-.4,1.8,0,1.1.3,1.9.8,2.5.5.6,1.2.9,2.1.9s1-.1,1.5-.4Z"></path><path class="cls-1" d="M288.1,25.5c-.8-.4-1.3-1-1.8-1.8-.4-.8-.6-1.7-.6-2.7s.2-1.9.7-2.7c.4-.8,1-1.4,1.8-1.8.8-.4,1.6-.6,2.6-.6s1.8.2,2.6.6c.8.4,1.4,1,1.8,1.8.4.8.7,1.7.7,2.7s-.2,1.9-.7,2.7c-.5.8-1.1,1.4-1.9,1.8-.8.4-1.7.6-2.6.6s-1.8-.2-2.5-.6ZM292.1,24c.5-.3.8-.6,1.1-1.1.3-.5.4-1.1.4-1.8s-.1-1.3-.4-1.8c-.3-.5-.6-.9-1.1-1.1-.5-.3-.9-.4-1.5-.4s-1,.1-1.5.4c-.4.3-.8.6-1.1,1.1-.3.5-.4,1.1-.4,1.8,0,1.1.3,1.9.8,2.5.5.6,1.2.9,2.1.9s1-.1,1.5-.4Z"></path><path class="cls-1" d="M300,12.7v13.3h-2v-13.3h2Z"></path></g><g><path class="cls-1" d="M112.9,34.3v10.5h-1.1v-8.4l-4,8.4h-.8l-4-8.4v8.4h-1.1v-10.5h1.2l4.3,9.1,4.3-9.1h1.2Z"></path><path class="cls-1" d="M117.5,34.2v10.7h-1.1v-10.7h1.1Z"></path><path class="cls-1" d="M122.2,44h4v.9h-5.2v-10.7h1.1v9.8Z"></path><path class="cls-1" d="M135.3,42.4h-5.1l-1,2.5h-1.2l4.1-10.5h1.3l4.1,10.5h-1.2l-1-2.5ZM134.9,41.5l-2.2-5.8-2.2,5.8h4.4Z"></path><path class="cls-1" d="M148.7,44.9h-1.1l-6.2-9v9h-1.1v-10.7h1.1l6.2,9v-9h1.1v10.7Z"></path><path class="cls-1" d="M154.4,44.3c-.8-.5-1.5-1.1-2-1.9-.5-.8-.7-1.8-.7-2.8s.2-2,.7-2.8c.5-.8,1.2-1.5,2-1.9.8-.5,1.8-.7,2.8-.7s2,.2,2.8.7c.8.5,1.5,1.1,2,1.9.5.8.7,1.8.7,2.8s-.2,2-.7,2.8c-.5.8-1.1,1.5-2,1.9-.8.5-1.8.7-2.8.7s-2-.2-2.8-.7ZM159.5,43.5c.7-.4,1.2-.9,1.6-1.6s.6-1.5.6-2.4-.2-1.7-.6-2.4c-.4-.7-.9-1.2-1.6-1.6-.7-.4-1.4-.5-2.3-.5s-1.6.2-2.3.5c-.7.4-1.2.9-1.6,1.6-.4.7-.6,1.5-.6,2.4s.2,1.7.6,2.4.9,1.2,1.6,1.6c.7.4,1.4.5,2.3.5s1.6-.2,2.3-.5Z"></path></g><g><path class="cls-2" d="M82,24l-7.7-6h0s-3.9-3.1-3.9-3.1c-5.1-4-5.1-10.5,0-14.5l.4-.4c-5.9,1.2-9.9,5.7-9.9,11.5s0,0,0,.1c0,3.4,1.5,6.7,4.8,9.3l7.7,6h0s3.9,3.1,3.9,3.1c5.1,4,5.1,10.5,0,14.5l-.4.4c5.9-1.2,9.9-5.7,9.9-11.5s0,0,0-.1c0-3.4-1.5-6.7-4.8-9.3Z"></path><polygon class="cls-2" points="26.3 9.2 14.5 0 26.3 0 26.3 9.2"></polygon><rect class="cls-2" y="0" width="7.5" height="45"></rect><polygon class="cls-2" points="87.2 9.2 75.4 0 87.2 0 87.2 9.2"></polygon><polyline class="cls-2" points="7.5 18.2 15.3 24.3 15.3 12.2"></polyline><polygon class="cls-2" points="56.8 9.2 44.9 0 56.8 0 56.8 9.2"></polygon><polygon class="cls-2" points="30.5 45 38 45 38 18.2 30.5 12.4 30.5 45"></polygon><polyline class="cls-2" points="38 18.2 45.8 24.3 45.8 12.2"></polyline><polygon class="cls-2" points="60.8 35.8 72.6 45 60.8 45 60.8 35.8"></polygon></g></svg> 